<?xml version="1.0" encoding="utf-8"?>
<!-- Generator: Adobe Illustrator 16.0.4, SVG Export Plug-In . SVG Version: 6.00 Build 0)  -->
<!DOCTYPE svg PUBLIC "-//W3C//DTD SVG 1.1//EN" "http://www.w3.org/Graphics/SVG/1.1/DTD/svg11.dtd">
<svg version="1.1" id="Layer_1" xmlns="http://www.w3.org/2000/svg" xmlns:xlink="http://www.w3.org/1999/xlink" x="0px" y="0px"
	 width="283.464px" height="283.465px" viewBox="0 0 283.464 283.465" enable-background="new 0 0 283.464 283.465"
	 xml:space="preserve">
<rect x="60.232" y="44.232" fill="#FFFFFF" width="157" height="181"/>
<g>
	<path fill="#F47C6C" d="M141.74,73.889c-8.499,0-15.756,3.01-21.777,9.021c-6.013,6.018-9.019,13.281-9.019,21.777v23.089h61.58
		v-23.089c0-8.496-2.997-15.76-9.009-21.777C157.498,76.898,150.236,73.889,141.74,73.889z"/>
	<path fill="#F47C6C" d="M141.734,0C63.455,0,0,63.458,0,141.729c0,78.283,63.455,141.735,141.734,141.735
		c78.277,0,141.73-63.452,141.73-141.735C283.464,63.458,220.011,0,141.734,0z M211.02,208.617c0,3.217-1.11,5.951-3.362,8.186
		c-2.229,2.258-4.976,3.368-8.186,3.368H83.996c-3.213,0-5.936-1.11-8.185-3.368c-2.246-2.234-3.369-4.969-3.369-8.186V139.33
		c0-3.21,1.123-5.926,3.369-8.185c2.249-2.233,4.972-3.369,8.185-3.369h3.849v-23.089c0-14.753,5.295-27.436,15.882-38.013
		c10.584-10.59,23.258-15.882,38.014-15.882s27.415,5.292,38.004,15.882c10.596,10.577,15.883,23.26,15.883,38.013v23.089h3.846
		c3.21,0,5.957,1.136,8.186,3.369c2.252,2.259,3.362,4.975,3.362,8.185v69.287H211.02z"/>
</g>
</svg>
