<?xml version="1.0" encoding="utf-8"?>
<!-- Generator: Adobe Illustrator 16.0.4, SVG Export Plug-In . SVG Version: 6.00 Build 0)  -->
<!DOCTYPE svg PUBLIC "-//W3C//DTD SVG 1.1//EN" "http://www.w3.org/Graphics/SVG/1.1/DTD/svg11.dtd">
<svg version="1.1" id="Layer_1" xmlns="http://www.w3.org/2000/svg" xmlns:xlink="http://www.w3.org/1999/xlink" x="0px" y="0px"
	 width="283.387px" height="283.465px" viewBox="0 0 283.387 283.465" enable-background="new 0 0 283.387 283.465"
	 xml:space="preserve">
<rect x="42.193" y="79.232" fill="#FFFFFF" width="198" height="148"/>
<path fill="#96C93F" d="M264.452,70.589c12.675,21.719,19.013,45.438,19.013,71.154c0,25.716-6.338,49.413-19.013,71.133
	c-12.676,21.72-29.873,38.918-51.591,51.595c-21.718,12.655-45.414,18.994-71.139,18.994c-25.716,0-49.432-6.339-71.14-18.994
	c-21.718-12.677-38.915-29.875-51.58-51.595C6.328,191.156,0,167.459,0,141.743c0-25.717,6.328-49.436,19.004-71.154
	c12.665-21.72,29.862-38.918,51.58-51.574C92.292,6.338,116.008,0,141.723,0c25.725,0,49.421,6.338,71.139,19.015
	C234.579,31.671,251.776,48.869,264.452,70.589z M233.631,120.144c2.221-2.22,3.33-4.985,3.33-8.316c0-3.432-1.109-6.257-3.33-8.478
	l-16.793-16.612c-2.32-2.342-5.105-3.513-8.296-3.513c-3.209,0-5.975,1.171-8.314,3.513l-75.297,75.11l-41.71-41.704
	c-2.332-2.341-5.107-3.512-8.297-3.512c-3.209,0-5.975,1.171-8.306,3.512l-16.793,16.613c-2.221,2.2-3.32,5.047-3.32,8.478
	c0,3.332,1.101,6.098,3.32,8.316l66.799,66.795c2.341,2.342,5.106,3.512,8.307,3.512c3.319,0,6.146-1.17,8.486-3.512
	L233.631,120.144L233.631,120.144z"/>
<rect x="48.193" y="66.232" fill="#96C93F" width="1" height="2"/>
</svg>
